<?xml version="1.0" encoding="utf-8"?>
<!-- Generator: Adobe Illustrator 21.1.0, SVG Export Plug-In . SVG Version: 6.00 Build 0)  -->
<svg version="1.1" id="Layer_1" xmlns="http://www.w3.org/2000/svg" xmlns:xlink="http://www.w3.org/1999/xlink" x="0px" y="0px"
	 viewBox="0 0 91.7 98.2" style="enable-background:new 0 0 91.7 98.2;" xml:space="preserve">
<style type="text/css">
	.st0{fill:#B2B1B1;}
</style>
<g>
	<g>
		<g>
			<path class="st0" d="M8.7,87h73.8V34H8.7V87z M79.6,83.5H15.1l22.4-19.7l16,16c0.5,0.5,1.3,0.7,2,0.3c0.9-0.6,1-1.7,0.3-2.4
				l-7.5-7.5l14.3-15.7l17.1,15.7V83.5z M12.3,36.9h67.3v29.3L63.5,51.4c-0.3-0.3-0.7-0.4-1.1-0.4c-0.4,0-0.8,0.2-1.1,0.5L45.9,68.2
				l-7.4-7.4c-0.6-0.6-1.5-0.6-2.1-0.1l-24,21.1V36.9z"/>
			<path class="st0" d="M24.6,41.5c-4.8,0-8.7,3.9-8.7,8.7c0,4.8,3.9,8.7,8.7,8.7s8.7-3.9,8.7-8.7C33.3,45.4,29.4,41.5,24.6,41.5z
				 M24.6,55.7c-3.1,0-5.6-2.5-5.6-5.6c0-3.1,2.5-5.6,5.6-5.6s5.6,2.5,5.6,5.6C30.2,53.2,27.7,55.7,24.6,55.7z"/>
			<path class="st0" d="M78.6,27.6c-2.8-2.5-17.7-15.6-26.2-21C51,5,49,4.1,46.8,4.1s-4.2,1-5.7,2.5c-8.5,5.4-23.4,18.6-26.2,21H3
				v65.9h85.9V27.6H78.6z M41.9,10.8c0-0.1,0-0.1,0.1-0.2c0.2-0.8,0.6-1.5,1-1.9c0,0,0,0,0,0c0.9-1,2.1-1.6,3.5-1.6s2.6,0.6,3.5,1.6
				c0,0,0,0,0,0c0.4,0.4,0.8,1.1,1,1.9c0,0.1,0,0.1,0.1,0.2c0.1,0.3,0.1,0.6,0.1,1c0,2.6-2.1,4.7-4.7,4.7c-2.6,0-4.7-2.1-4.7-4.7
				C41.8,11.4,41.9,11.1,41.9,10.8z M38.8,11.9L38.8,11.9c0,3.4,2.1,6.5,5.3,7.5c5.5,1.7,10.5-2.3,10.4-7.5l0,0
				c6.6,4.7,15,11.8,19.4,15.7H19.4C23.9,23.7,32.3,16.6,38.8,11.9z M85.4,89.9H5.9V30.5h9.4h62.3h7.8V89.9z"/>
		</g>
	</g>
</g>
</svg>
