<?xml version="1.0" encoding="utf-8"?>
<!-- Generator: Adobe Illustrator 21.1.0, SVG Export Plug-In . SVG Version: 6.00 Build 0)  -->
<svg version="1.1" id="Layer_1" xmlns="http://www.w3.org/2000/svg" xmlns:xlink="http://www.w3.org/1999/xlink" x="0px" y="0px"
	 viewBox="0 0 91.7 98.2" style="enable-background:new 0 0 91.7 98.2;" xml:space="preserve">
<style type="text/css">
	.st0{fill:#B2B1B1;}
</style>
<g>
	<g>
		<g>
			<path class="st0" d="M84.8,44.1h-5.1v-8.7c0-2.1-1.7-3.9-3.9-3.9H71v-3.5l-0.7-0.7l0,0L59.5,17L48.1,5.8H13.9v15.7H6.4
				c-2.1,0-3.9,1.7-3.9,3.9v62h0c0,1.2,0.5,2.3,1.5,3.1c0.6,0.5,1.4,0.7,2.2,0.7l63.6,0c1.7,0,3.2-1.1,3.6-2.6l15-40v-0.3
				C88.5,45.9,87,44.1,84.8,44.1z M76.6,35.1v9H71v-10h4.6C76.1,34.1,76.6,34.5,76.6,35.1z M49.6,10.7l16.5,16.5H49.6V10.7z M17,8.3
				h30.1v22h21.3v0.9v12.9H20.9c-0.2,0-0.4,0-0.6,0.1c-1.4,0.2-2.6,1.2-2.9,2.5L17,47.8V21.2V8.3z M6.7,24h7.7v31.3L5.7,78.6V25.1
				C5.7,24.5,6.2,24,6.7,24z M70.8,88.1c-0.1,0.3-0.4,0.6-0.8,0.6H6.1c-0.3,0-0.5-0.2-0.6-0.3c-0.1-0.1-0.2-0.4-0.2-0.6l8.6-23.5v0
				L19.8,48l0-0.1c0.1-0.3,0.4-0.6,0.8-0.6h47.5H71h8.6h5c0.5,0,0.7,0.8,0.7,1.2L70.8,88.1z"/>
			<path class="st0" d="M25.5,30.3h14.2c0.8-0.3,1.4-0.9,1.4-1.7c0-0.8-0.6-1.4-1.4-1.4H25.5c-0.8,0-1.4,0.6-1.4,1.4
				C24.1,29.4,24.7,30,25.5,30.3z"/>
			<path class="st0" d="M25.5,20.3h14.2c0.8-0.2,1.4-0.8,1.4-1.6c0-0.8-0.6-1.4-1.4-1.5H25.5c-0.8,0.1-1.4,0.7-1.4,1.5
				C24.1,19.4,24.7,20.1,25.5,20.3z"/>
			<path class="st0" d="M25.5,40.3h34.1c0.8-0.4,1.4-1,1.4-1.8c0-0.8-0.6-1.4-1.4-1.3H25.5c-0.8-0.1-1.4,0.6-1.4,1.3
				C24.1,39.3,24.7,40,25.5,40.3z"/>
		</g>
	</g>
</g>
</svg>
