<?xml version="1.0" encoding="utf-8"?>
<!-- Generator: Adobe Illustrator 21.1.0, SVG Export Plug-In . SVG Version: 6.00 Build 0)  -->
<svg version="1.1" id="Layer_1" xmlns="http://www.w3.org/2000/svg" xmlns:xlink="http://www.w3.org/1999/xlink" x="0px" y="0px"
	 viewBox="0 0 91.7 98.2" style="enable-background:new 0 0 91.7 98.2;" xml:space="preserve">
<style type="text/css">
	.st0{fill:#B2B1B1;}
</style>
<g>
	<g>
		<g id="XMLID_9_">
			<g>
				<path class="st0" d="M57.6,61.2h8.8l0,9.1c0,7.6-5.3,14.4-12.8,15.5c-9.3,1.4-17.3-6-17.3-15.3V34.6
					c8.9-2.8,14.6-12.8,10.2-23.2c-1.5-3.6-4.4-6.5-8-8c-12.2-5.2-24,3.7-24,15.2c0,7.5,4.9,13.8,11.7,16l0,35.2
					c0,11.5,7.7,21.9,18.9,24.6c16.6,3.9,31.4-8.3,31.4-24V33.3L57.6,61.2z M31.6,24.8c-3.4,0-6.2-2.8-6.2-6.2s2.8-6.2,6.2-6.2
					s6.2,2.8,6.2,6.2S35.1,24.8,31.6,24.8z"/>
			</g>
		</g>
	</g>
</g>
</svg>
