<?xml version="1.0" encoding="utf-8"?>
<!-- Generator: Adobe Illustrator 21.1.0, SVG Export Plug-In . SVG Version: 6.00 Build 0)  -->
<svg version="1.1" id="Layer_1" xmlns="http://www.w3.org/2000/svg" xmlns:xlink="http://www.w3.org/1999/xlink" x="0px" y="0px"
	 viewBox="0 0 91.7 98.2" style="enable-background:new 0 0 91.7 98.2;" xml:space="preserve">
<style type="text/css">
	.st0{fill:#CCCBCA;}
</style>
<g>
	<g>
		<g>
			<g>
				<path class="st0" d="M12.1,39.3c-2.6,0-4.8,0.9-6.5,2.7c-1.8,1.8-2.7,4-2.7,6.5c0,2.6,0.9,4.8,2.7,6.5c1.8,1.8,4,2.7,6.5,2.7
					c2.6,0,4.7-0.9,6.5-2.7c1.8-1.8,2.7-4,2.7-6.5c0-2.6-0.9-4.8-2.7-6.5C16.8,40.2,14.6,39.3,12.1,39.3z"/>
				<path class="st0" d="M12.1,14.6c-2.6,0-4.8,0.9-6.5,2.7c-1.8,1.8-2.7,4-2.7,6.5c0,2.6,0.9,4.8,2.7,6.5c1.8,1.8,4,2.7,6.5,2.7
					c2.6,0,4.7-0.9,6.5-2.7c1.8-1.8,2.7-4,2.7-6.5c0-2.6-0.9-4.8-2.7-6.5C16.8,15.5,14.6,14.6,12.1,14.6z"/>
				<path class="st0" d="M12.1,63.9c-2.6,0-4.8,0.9-6.5,2.7c-1.8,1.8-2.7,4-2.7,6.5c0,2.6,0.9,4.8,2.7,6.5c1.8,1.8,4,2.7,6.5,2.7
					c2.6,0,4.7-0.9,6.5-2.7c1.8-1.8,2.7-4,2.7-6.5c0-2.6-0.9-4.8-2.7-6.5C16.8,64.8,14.6,63.9,12.1,63.9z"/>
				<path class="st0" d="M86.5,19.4c-0.3-0.3-0.7-0.5-1.1-0.5H28.1c-0.4,0-0.8,0.2-1.1,0.5c-0.3,0.3-0.4,0.7-0.4,1.1v9.7
					c0,0.4,0.1,0.8,0.4,1.1c0.3,0.3,0.7,0.5,1.1,0.5h57.4c0.4,0,0.8-0.2,1.1-0.5c0.3-0.3,0.4-0.7,0.4-1.1v-9.7
					C86.9,20.1,86.8,19.7,86.5,19.4z"/>
				<path class="st0" d="M85.4,40.5H28.1c-0.4,0-0.8,0.2-1.1,0.5c-0.3,0.3-0.4,0.7-0.4,1.1v9.7c0,0.4,0.1,0.8,0.4,1.1
					c0.3,0.3,0.7,0.5,1.1,0.5h57.4c0.4,0,0.8-0.2,1.1-0.5c0.3-0.3,0.4-0.7,0.4-1.1v-9.7c0-0.4-0.1-0.8-0.4-1.1
					C86.2,40.6,85.8,40.5,85.4,40.5z"/>
				<path class="st0" d="M85.4,66.4H28.1c-0.4,0-0.8,0.2-1.1,0.5c-0.3,0.3-0.4,0.7-0.4,1.1v9.7c0,0.4,0.1,0.8,0.4,1.1
					c0.3,0.3,0.7,0.5,1.1,0.5h57.4c0.4,0,0.8-0.2,1.1-0.5c0.3-0.3,0.4-0.7,0.4-1.1V68c0-0.4-0.1-0.8-0.4-1.1
					C86.2,66.5,85.8,66.4,85.4,66.4z"/>
			</g>
		</g>
	</g>
</g>
</svg>
