<?xml version="1.0" encoding="utf-8"?>
<!-- Generator: Adobe Illustrator 21.1.0, SVG Export Plug-In . SVG Version: 6.00 Build 0)  -->
<svg version="1.1" id="Layer_1" xmlns="http://www.w3.org/2000/svg" xmlns:xlink="http://www.w3.org/1999/xlink" x="0px" y="0px"
	 viewBox="0 0 160.6 116.5" style="enable-background:new 0 0 160.6 116.5;" xml:space="preserve">
<style type="text/css">
	.st0{fill:url(#SVGID_1_);}
	.st1{fill:url(#SVGID_2_);}
</style>
<g>
	<linearGradient id="SVGID_1_" gradientUnits="userSpaceOnUse" x1="123.7862" y1="115.0948" x2="123.7862" y2="60.9839">
		<stop  offset="0" style="stop-color:#FFAB82"/>
		<stop  offset="1" style="stop-color:#F6548A"/>
	</linearGradient>
	<path class="st0" d="M133.7,63.6v16.8c0,4.8-3.2,9.3-7.9,10.2c-6.4,1.3-12-3.7-12-9.9V64.6c0-2-2-3.4-3.9-2.7l-9.3,3.4
		c-0.7,0.2-1.4,0.2-2.1,0L93,63c-1.9-0.8-4,0.7-4,2.7l0,14.1c0,16,10.6,30.4,26.1,34.2c22.9,5.5,43.5-11.6,43.5-33.3V63.6
		c0-1.5-1.2-2.6-2.6-2.6h-19.6C134.9,61,133.7,62.2,133.7,63.6z"/>
	<linearGradient id="SVGID_2_" gradientUnits="userSpaceOnUse" x1="2" y1="58.2732" x2="111.359" y2="58.2732">
		<stop  offset="0" style="stop-color:#FFAB82"/>
		<stop  offset="1" style="stop-color:#F6548A"/>
	</linearGradient>
	<path class="st1" d="M89,34l0,8.3c0,1.2,0.7,2.3,1.8,2.7l6.8,2.7c0.7,0.3,1.4,0.3,2.1,0l9.7-3.6c1.1-0.4,1.9-1.5,1.9-2.7l0-6.5
		c0-17.4-13.4-32.5-30.8-33.3C62.1,0.6,46.7,15.4,46.7,33.8l0,46.7c0,4.8-3.2,9.3-7.9,10.2c-6.4,1.3-12-3.7-12-9.9V63.6
		c0-1.5-1.2-2.6-2.6-2.6H4.6C3.2,61,2,62.2,2,63.6l0,16.3c0,16,10.6,30.4,26.1,34.2c22.9,5.5,43.5-11.6,43.5-33.3V34.1
		c0-6,6.2-10.7,12.6-7.9C87.2,27.5,89,30.7,89,34z"/>
</g>
</svg>
