<?xml version="1.0" encoding="utf-8"?>
<!-- Generator: Adobe Illustrator 21.1.0, SVG Export Plug-In . SVG Version: 6.00 Build 0)  -->
<svg version="1.1" id="Layer_1" xmlns="http://www.w3.org/2000/svg" xmlns:xlink="http://www.w3.org/1999/xlink" x="0px" y="0px"
	 viewBox="0 0 91.7 98.2" style="enable-background:new 0 0 91.7 98.2;" xml:space="preserve">
<style type="text/css">
	.st0{fill:#B2B1B1;}
</style>
<g>
	<g>
		<g>
			<g>
				<path class="st0" d="M75.4,27.4L47,11c-0.5-0.3-1.1-0.3-1.5,0L17,27.4c-0.5,0.3-0.8,0.8-0.8,1.3l0,33.5c0,0.5,0.3,1,0.8,1.3
					l28.4,16.4c0.2,0.1,0.5,0.2,0.8,0.2c0.3,0,0.5-0.1,0.8-0.2l28.4-16.4c0.5-0.3,0.8-0.8,0.8-1.3V28.7
					C76.1,28.1,75.8,27.6,75.4,27.4z M44.4,76.1L19,61.3l0-30.1L44.5,46L44.4,76.1z M46.1,43.3L20.7,28.7L46.1,14l25.4,14.7
					L46.1,43.3z M47.5,76.1l0-30.1L73,31.2v30.1h0L47.5,76.1z"/>
			</g>
		</g>
		<g>
			<g>
				<path class="st0" d="M89,22.1c0.6-0.3,0.9-1,0.8-1.7c-0.2-1.1-1.4-1.5-2.3-1l-5.5,3.2C74.4,10.6,61.1,2.7,46,2.7
					s-28.4,8-35.9,19.9l-5.5-3.2c-0.7-0.4-1.5-0.3-2,0.3c-0.7,0.8-0.4,1.9,0.4,2.4l5.5,3.2c-3.2,5.9-4.9,12.7-4.9,19.9
					c0,22.9,18.2,41.6,40.9,42.4l0,5.1c0,0.7,0.4,1.3,1.1,1.5c1.1,0.3,2-0.5,2-1.5v-5.1C70.2,86.7,88.4,68,88.4,45.1
					c0-7.2-1.8-13.9-4.9-19.9L89,22.1z M85,45.1c0,21.5-17.5,38.9-38.9,38.9c-21.5,0-38.9-17.5-38.9-38.9S24.6,6.2,46.1,6.2
					S85,23.7,85,45.1z"/>
			</g>
		</g>
	</g>
</g>
</svg>
