<?xml version="1.0" encoding="utf-8"?>
<!-- Generator: Adobe Illustrator 21.1.0, SVG Export Plug-In . SVG Version: 6.00 Build 0)  -->
<svg version="1.1" id="Layer_1" xmlns="http://www.w3.org/2000/svg" xmlns:xlink="http://www.w3.org/1999/xlink" x="0px" y="0px"
	 viewBox="0 0 91.7 98.2" style="enable-background:new 0 0 91.7 98.2;" xml:space="preserve">
<style type="text/css">
	.st0{fill:#CCCBCA;}
</style>
<g>
	<g>
		<g>
			<path class="st0" d="M88,51.1c0.2-0.4,0.2-0.9,0-1.3c-0.1-0.2-0.2-0.4-0.4-0.5L67.8,29.5c-0.6-0.6-1.7-0.6-2.3,0
				c-0.6,0.6-0.6,1.7,0,2.3l17,15H32c-0.9,1.9-1.6,2.7-1.6,3.6c0,0.9,0.7,1.6,1.6,0.9h50.5l-17,17.7c-0.6,0.6-0.6,1.7,0,2.3
				c0.3,0.3,0.7,0.5,1.2,0.5s0.8-0.2,1.2-0.5l19.8-19.8C87.8,51.4,87.9,51.3,88,51.1z"/>
			<path class="st0" d="M25.9,49.1c0-3.7,3-6.7,6.7-6.7h28.6V3.6c0-0.9-0.7-1.6-1.6-1.6h-55C3.6,2,2.9,2.7,2.9,3.6v90.9
				c0,0.9,0.7,1.6,1.6,1.6h55c0.9,0,1.6-0.7,1.6-1.6V55.8H32.6C28.9,55.8,25.9,52.8,25.9,49.1z"/>
		</g>
	</g>
</g>
</svg>
